<svg width="150" height="138" viewBox="0 0 150 138" fill="none" xmlns="http://www.w3.org/2000/svg">
<path d="M110.346 23.8928C113.172 22.6313 115.129 19.9693 115.129 16.8796C115.129 14.8155 114.241 12.8359 112.66 11.3763C111.078 9.91672 108.934 9.09674 106.698 9.09674C104.462 9.09674 102.317 9.91672 100.736 11.3763C99.1548 12.8359 98.2665 14.8155 98.2665 16.8796C98.2665 20.012 100.27 22.6954 103.154 23.9355C99.8184 40.6131 94.6995 53.0251 75.6482 55.6764C75.6482 55.6764 80.7787 79.3565 104.775 79.3565C128.772 79.3565 131.204 55.9116 131.204 55.9116C111.736 56.831 110.091 34.2414 110.346 23.8928Z" fill="#F19534"/>
<path d="M41.1128 23.8928C38.2869 22.6313 36.3297 19.9693 36.3297 16.8796C36.3297 14.8155 37.218 12.8359 38.7991 11.3763C40.3803 9.91672 42.5248 9.09674 44.7609 9.09674C46.997 9.09674 49.1415 9.91672 50.7227 11.3763C52.3038 12.8359 53.1921 14.8155 53.1921 16.8796C53.1921 20.012 51.1885 22.6954 48.3048 23.9355C51.6402 40.6131 56.7592 53.0251 75.8105 55.6764C75.8105 55.6764 70.6799 79.3565 46.6834 79.3565C22.6869 79.3565 20.2664 55.9223 20.2664 55.9223C39.723 56.831 41.3676 34.2414 41.1128 23.8928Z" fill="#F19534"/>
<path d="M104.451 79.3565C104.555 79.3565 104.66 79.3671 104.764 79.3671C111.377 79.3671 116.345 77.5818 120.074 75.0053L104.451 79.3565Z" fill="#FFCA28"/>
<path d="M138.975 18.6008C135.118 18.1197 131.436 21.5087 130.764 26.1485C130.347 29.0457 131.192 31.7504 132.825 33.493L130.046 44.1304C130.046 44.1304 125.795 69.2643 104.324 74.2249C87.1601 78.1911 80.9409 49.1871 79.4353 40.2282C82.7013 38.7315 84.9596 35.6312 84.9596 32.0284C84.9596 26.9717 80.524 22.8771 75.046 22.8771C69.568 22.8771 65.1324 26.9717 65.1324 32.0284C65.1324 35.6526 67.4255 38.785 70.7493 40.2603C69.5564 49.1016 64.2985 77.1434 45.7684 74.2142C26.9603 71.2314 18.7491 41.9922 16.8498 34.0383C19.1081 32.3277 20.3705 29.3129 19.9072 26.0736C19.2355 21.4232 15.2515 18.0876 11.0128 18.6115C6.774 19.1353 3.89025 23.3261 4.56196 27.9659C5.04838 31.3442 7.29516 34.0276 10.1094 35.0432L24.8409 119.532C24.8409 119.532 37.6962 128.908 75.046 128.908C112.396 128.908 125.251 119.532 125.251 119.532L140.017 34.8187C142.403 33.6641 144.279 31.0662 144.742 27.8804C145.426 23.2299 142.843 19.0819 138.975 18.6008Z" fill="#FFCA28"/>
<path d="M75.5092 107.388C81.7391 107.388 86.7895 101.831 86.7895 94.9756C86.7895 88.1207 81.7391 82.5637 75.5092 82.5637C69.2793 82.5637 64.229 88.1207 64.229 94.9756C64.229 101.831 69.2793 107.388 75.5092 107.388Z" fill="#1B3A4B"/>
<path d="M75.5093 85.6319C75.9494 86.0809 76.3431 86.9041 75.5093 88.5077C74.6754 90.1113 70.1819 92.2816 69.3596 92.7199C68.5373 93.1689 67.993 92.9658 67.7382 92.784C66.5221 91.886 66.9854 89.8547 67.7729 88.6146C69.4638 85.9312 73.0424 83.1623 75.5093 85.6319Z" fill="#006466"/>
<path d="M74.6756 99.6048C73.4016 100.171 69.2208 101.893 70.599 103.935C71.4096 105.143 73.0889 105.656 74.6293 105.72C76.1696 105.784 77.6867 105.335 79.0533 104.683C85.5389 101.583 86.06 93.4362 84.7977 92.8161C83.5006 92.1747 82.6204 93.8317 81.9487 94.5373C79.9062 96.6488 77.4353 98.3704 74.6756 99.6048Z" fill="#144552"/>
<path d="M137.643 84.8194C139.45 75.5933 132.733 73.2841 132.733 73.2841C132.733 73.2841 128.401 72.5571 126.363 82.9379C124.325 93.3079 128.656 94.0349 128.656 94.0349C128.656 94.0349 135.825 94.0456 137.643 84.8194Z" fill="#1B3A4B"/>
<path d="M134.655 76.4379C136.23 78.3836 134.366 81.2594 131.343 83.173C130.451 83.7397 129.27 83.5258 129.096 83.0555C128.61 81.7084 128.818 80.1796 129.467 78.886C131.389 75.0053 133.856 75.4543 134.655 76.4379Z" fill="#006466"/>
<path d="M12.1826 85.0974C10.3643 75.882 17.0931 73.5621 17.0931 73.5621C17.0931 73.5621 21.4245 72.8351 23.4628 83.2158C25.5012 93.5859 21.1697 94.3128 21.1697 94.3128C21.1697 94.3128 13.9893 94.3235 12.1826 85.0974Z" fill="#1B3A4B"/>
<path d="M19.1546 76.6944C20.7065 77.7635 20.0695 79.164 18.8998 80.1368C17.5679 81.2594 16.5488 82.4888 15.4138 83.761C15.2401 83.9534 15.0432 84.1673 14.7653 84.2207C14.2325 84.3276 13.804 83.8252 13.6303 83.3441C13.1323 81.997 13.2249 80.4148 13.9661 79.1747C16.0739 75.636 18.5524 76.2775 19.1546 76.6944Z" fill="#006466"/>
<path d="M116.681 93.7569C115.882 97.9584 112.234 100.877 108.516 100.278C104.798 99.6796 104.289 96.0982 105.088 91.8967C105.887 87.6952 107.682 84.4773 111.388 85.076C115.106 85.6747 117.48 89.5661 116.681 93.7569Z" fill="#4D194D"/>
<path d="M36.1211 93.7569C36.9202 97.9584 40.5683 100.877 44.2859 100.278C48.0035 99.6796 48.5131 96.0982 47.714 91.8967C46.9149 87.6952 45.1198 84.4773 41.4137 85.076C37.7077 85.6747 35.3335 89.5661 36.1211 93.7569Z" fill="#4D194D"/>
<path d="M41.5066 90.9559C40.6612 91.8326 38.5997 93.5965 37.8701 92.2495C36.8741 90.4107 38.2522 87.6311 39.8273 86.7117C41.4024 85.7923 42.6879 86.5192 42.9079 87.3424C43.1743 88.3901 42.2594 90.1648 41.5066 90.9559Z" fill="#FFA8A4" fill-opacity="0.1"/>
<path d="M107.404 93.6393C106.258 93.479 106.13 89.8334 109.211 86.9683C110.682 85.5999 112.79 87.2249 112.257 89.4165C111.747 91.5012 109.501 93.9387 107.404 93.6393Z" fill="#FFA8A4" fill-opacity="0.1"/>
<path d="M127.289 105.57C120.352 108.777 104.439 117.319 75.0575 117.319C45.6757 117.319 29.7629 108.777 22.8257 105.57C22.8257 105.57 20.3357 106.8 20.3357 108.083V117.929C20.3357 119.244 21.0885 120.452 22.3161 121.125C27.7362 124.076 44.2512 131.046 75.0691 131.046C105.887 131.046 122.402 124.076 127.822 121.125C128.425 120.797 128.924 120.33 129.272 119.769C129.619 119.209 129.802 118.574 129.803 117.929V108.083C129.779 106.8 127.289 105.57 127.289 105.57Z" fill="#FFCA28"/>
<path d="M46.7414 119.073C49.9842 119.661 50.9686 119.917 50.7485 121.585C50.2969 124.867 42.9195 124.087 38.5534 123.028C29.5315 120.837 27.7017 118.527 27.7017 116.464C27.7017 114.572 29.2767 114.347 31.7088 115.138C34.6157 116.09 39.1093 117.694 46.7414 119.073Z" fill="#FFF59D"/>
<path d="M127.289 107.73C127.289 107.73 108.099 117.758 75.0575 117.758C42.016 117.758 22.8257 107.73 22.8257 107.73" stroke="#F19534" stroke-width="4" stroke-miterlimit="10" stroke-linecap="round"/>
<path d="M32.1141 53.5703C38.2753 49.5078 41.5876 42.2274 41.8771 30.6386C41.9003 29.5909 42.2246 29.2809 42.8384 29.2168C43.8228 29.1206 43.9849 29.9437 43.9734 30.5317C43.6954 43.0399 41.9698 50.8549 35.1368 55.2595C34.8009 55.4733 32.4036 56.8203 31.3844 55.8902C30.1684 54.7998 31.7203 53.8269 32.1141 53.5703Z" fill="#FFCA28"/>
<path d="M37.7542 17.1897C37.5573 15.2546 38.0437 11.7694 43.5448 10.1872C45.1546 9.72749 46.1506 10.4545 46.3359 11.0211C46.7992 12.4323 45.4557 12.9882 44.8419 13.1699C40.6147 14.4314 40.4063 16.3772 39.5377 17.6173C38.6691 18.8574 37.8236 17.7776 37.7542 17.1897Z" fill="#FFCA28"/>
<path d="M91.4683 51.0045C97.0389 46.4396 100.733 41.3401 103.165 29.7299C103.385 28.7036 103.71 28.4256 104.312 28.447C105.296 28.4684 105.343 29.3129 105.238 29.8902C103.177 42.2702 101.22 45.7981 94.352 52.8219C93.5761 53.6131 91.6883 54.3293 90.6228 53.5061C89.6616 52.7685 90.7734 51.5818 91.4683 51.0045Z" fill="#FFCA28"/>
<path d="M99.668 17.2858C99.4711 15.3508 99.9575 11.8656 105.459 10.2834C107.068 9.82368 108.064 10.5507 108.25 11.1173C108.713 12.5284 107.37 13.0844 106.756 13.2661C102.529 14.5276 102.32 16.4733 101.451 17.7135C100.594 18.9536 99.7375 17.8738 99.668 17.2858Z" fill="#FFCA28"/>
<path d="M37.4646 77.1435C24.0071 71.5094 20.0463 56.8096 17.9385 50.4272C17.6605 49.5826 17.7995 48.7808 18.7144 48.5243C19.6293 48.2677 20.1737 48.8129 20.4632 49.6575C21.9919 54.2866 27.9332 69.7454 40.1978 74.1393C41.0896 74.4601 42.4793 75.2405 41.7265 76.5768C41.2285 77.4428 39.6303 78.0522 37.4646 77.1435Z" fill="#FFF59D"/>
<path d="M15.5642 26.9076C14.9156 25.6674 14.6492 24.4914 11.1169 23.1337C10.2252 22.7916 9.63453 22.0326 9.87774 21.1773C10.1209 20.322 11.0475 19.6806 12.3909 19.8944C16.7571 20.5893 17.7067 24.6839 17.892 26.1057C18.0657 27.4742 16.2243 28.1477 15.5642 26.9076Z" fill="#FFF59D"/>
<path d="M113.067 77.1435C126.525 71.5094 130.486 56.8096 132.594 50.4272C132.872 49.5826 132.733 48.7808 131.818 48.5243C130.903 48.2677 130.358 48.8129 130.069 49.6575C128.54 54.2866 122.599 69.7454 110.334 74.1393C109.443 74.4601 108.053 75.2405 108.806 76.5768C109.304 77.4428 110.902 78.0522 113.067 77.1435Z" fill="#FFF59D"/>
<path d="M134.968 26.9076C135.617 25.6674 135.883 24.4914 139.415 23.1337C140.307 22.7916 140.898 22.0326 140.654 21.1773C140.411 20.322 139.485 19.6806 138.141 19.8944C133.775 20.5893 132.825 24.6839 132.64 26.1057C132.466 27.4742 134.319 28.1477 134.968 26.9076Z" fill="#FFF59D"/>
<path d="M69.6491 32.1674C70.3556 30.8311 71.5948 29.003 75.6367 28.2332C77.1886 27.9339 77.6402 27.3138 77.5013 26.373C77.2233 24.4166 74.5828 24.5556 73.1583 24.8656C68.4099 25.8919 67.356 29.7834 67.1591 31.3229C66.9622 32.7875 68.9542 33.5038 69.6491 32.1674Z" fill="#FFF59D"/>
</svg>
